<svg xmlns="http://www.w3.org/2000/svg" width="42" height="42" viewBox="0 0 42 42">
  <g id="Group_392" data-name="Group 392" transform="translate(-708 -4958)">
    <circle id="Ellipse_18" data-name="Ellipse 18" cx="21" cy="21" r="21" transform="translate(708 4958)" fill="#17ac9d"/>
    <path id="Path_56" data-name="Path 56" d="M187.685,303.387c-1,0-1.812,2.457-1.812,6.286H189.5c0-3.83-.811-6.286-1.812-6.286" transform="translate(531.367 4677.947)" fill="#fff"/>
    <path id="Path_57" data-name="Path 57" d="M230.369,256.749c-2.535,0-4.571,8.533-4.571,20.1h9.142c0-11.568-2.057-20.1-4.57-20.1" transform="translate(503.268 4710.771)" fill="#fff"/>
    <path id="Path_58" data-name="Path 58" d="M205.114,280.685c-1.6,0-2.879,5.359-2.879,13.011h5.757c0-7.652-1.3-13.011-2.879-13.011" transform="translate(519.852 4693.925)" fill="#fff"/>
  </g>
</svg>
